<svg version="1.2" xmlns="http://www.w3.org/2000/svg" viewBox="0 0 688 287" width="688" height="287">
	<title>NASA-ai</title>
	<style>
		.s0 { opacity: .3;fill: #aedee4 } 
		.s1 { fill: #ffffff } 
	</style>
	<g id="FreeVector.com Background">
		<path id="&lt;Path&gt;" class="s0" d="m-75 459h841.9v-595.3h-841.9z"/>
	</g>
	<g id="Vector Logo">
		<g id="&lt;Group&gt;">
			<path id="&lt;Compound Path&gt;" fill-rule="evenodd" class="s1" d="m329.8 226.9l-33.9-105.4q-0.5-2-1.8-3.4-1.3-1.4-3.1-1.4-4 0-5.5 5l-33.5 105.2-33.5-0.2 36.8-118.4q3.7-11.5 13.7-17.7 9.9-6.2 22.4-6.2 22.8 0 32.9 20.2l1.3 2.6 27.6 87.9 1.1 2h72.9q5.3 0 8.8-4 3.6-4 3.6-9.6 0-4.6-2.6-7.9-2.7-3.2-6.7-3.2h-45.5q-16 0-26.8-13.8-10.1-12.8-10.1-30.2 0-18.1 10.1-29.2 11-12.3 31.5-12.3h75.2v29.8h-73.8q-5.1 0-8.2 4.3-3.1 4.3-3.1 9.9 0 4.9 2.9 8.5 2.9 3.5 7.5 3.5h39.4q17.6 0 29.5 11 12 11 12 29.4 0 17.6-10.3 30.2-10.9 13.4-27 13.4zm-216.5-0.2h-31.3v-106.8q0-20.8 10.6-29.2 8.3-6.3 25.3-6.3 14.1 0 24.7 7.8 10.6 7.8 14.5 21.3l20.1 71 3.1 9.7q0.8 2.5 2.7 4.3 1.9 1.7 4.3 1.2 4.2-0.8 4.2-4.6v-107.6h31.7v106.5q0 17.5-8.5 27.1-8.4 9.5-24.8 9.5-14.5 0-24.1-5.1-11.4-6.1-14.8-17.9l-23.1-80.8-1.6-5.3q-0.9-2.9-3-4.7-2.1-1.7-4.9-1.2-2.4 0.4-3.7 2.7-1.4 2.3-1.4 5zm387.8-119.1q3.5-11.5 13-17.4 9.5-5.9 22.3-5.9 12.7 0 21.9 5.9 9.2 5.8 12.7 17l37.5 119.7h-31.5l-36.2-107.4q-1.1-3.5-4.2-3.5-2.9 0-4 3.5l-35.5 107.4h-33.1z"/>
		</g>
	</g>
</svg>